HIERARCHY
ROOT Hips
{
	OFFSET 0.000000 0.000000 0.000000
	CHANNELS 6 Xposition Yposition Zposition Xrotation Yrotation Zrotation
	JOINT LeftUpLeg_virtual
	{
		OFFSET 0.000000 0.000000 0.000000
		CHANNELS 3 Xrotation Yrotation Zrotation
		JOINT LeftUpLeg
		{
			OFFSET 10.205400 -3.823500 0.155100
			CHANNELS 3 Xrotation Yrotation Zrotation
			JOINT LeftLeg
			{
				OFFSET 0.708757 -12.982077 0.567790
				CHANNELS 3 Xrotation Yrotation Zrotation
				JOINT LeftFoot
				{
					OFFSET -0.708756 -10.717838 -2.184338
					CHANNELS 3 Xrotation Yrotation Zrotation
					JOINT LeftToeBase
					{
						OFFSET 0.108149 -7.191104 7.560241
						CHANNELS 3 Xrotation Yrotation Zrotation
						JOINT LeftToe_End
						{
							OFFSET 0.070230 0.081724 4.490308
							CHANNELS 3 Xrotation Yrotation Zrotation
							End Site
							{
								OFFSET 0 0 0
							}
						}
					}
				}
			}
		}
	}
	JOINT RightUpLeg_virtual
	{
		OFFSET 0.000000 0.000000 0.000000
		CHANNELS 3 Xrotation Yrotation Zrotation
		JOINT RightUpLeg
		{
			OFFSET -10.205400 -3.823500 0.005500
			CHANNELS 3 Xrotation Yrotation Zrotation
			JOINT RightLeg
			{
				OFFSET -0.708756 -12.982134 0.610632
				CHANNELS 3 Xrotation Yrotation Zrotation
				JOINT RightFoot
				{
					OFFSET 0.708754 -10.717769 -1.945823
					CHANNELS 3 Xrotation Yrotation Zrotation
					JOINT RightToeBase
					{
						OFFSET -0.108140 -7.191069 7.372968
						CHANNELS 3 Xrotation Yrotation Zrotation
						JOINT RightToe_End
						{
							OFFSET -0.070227 0.081735 4.479403
							CHANNELS 3 Xrotation Yrotation Zrotation
							End Site
							{
								OFFSET 0 0 0
							}
						}
					}
				}
			}
		}
	}
	JOINT Spine_virtual
	{
		OFFSET 0.000000 0.000000 0.000000
		CHANNELS 3 Xrotation Yrotation Zrotation
		JOINT Spine
		{
			OFFSET 0.000000 6.876099 0.125700
			CHANNELS 3 Xrotation Yrotation Zrotation
			JOINT Spine1
			{
				OFFSET 0.000000 5.730043 0.104720
				CHANNELS 3 Xrotation Yrotation Zrotation
				JOINT Spine1_split
				{
					OFFSET 0.000000 5.730043 0.104720
					CHANNELS 3 Xrotation Yrotation Zrotation
					JOINT Spine2
					{
						OFFSET 0.000000 5.730043 0.104720
						CHANNELS 3 Xrotation Yrotation Zrotation
						JOINT Neck_virtual
						{
							OFFSET 0.000000 0.000000 0.000000
							CHANNELS 3 Xrotation Yrotation Zrotation
							JOINT Neck
							{
								OFFSET 0.000000 10.314075 0.188496
								CHANNELS 3 Xrotation Yrotation Zrotation
								JOINT Head
								{
									OFFSET 0.000000 7.643700 -2.377400
									CHANNELS 3 Xrotation Yrotation Zrotation
									JOINT HeadTop_End
									{
										OFFSET 0.000000 43.788605 -13.619600
										CHANNELS 3 Xrotation Yrotation Zrotation
										End Site
										{
											OFFSET 0 0 0
										}
									}
								}
							}
						}
						JOINT LeftShoulder_virtual
						{
							OFFSET 0.000000 0.000000 0.000000
							CHANNELS 3 Xrotation Yrotation Zrotation
							JOINT LeftShoulder
							{
								OFFSET 2.196100 4.412489 0.087492
								CHANNELS 3 Xrotation Yrotation Zrotation
								JOINT LeftShoulder_split
								{
									OFFSET 2.196100 4.412489 0.087492
									CHANNELS 3 Xrotation Yrotation Zrotation
									JOINT LeftArm
									{
										OFFSET 8.771219 -2.981674 -0.026999
										CHANNELS 3 Xrotation Yrotation Zrotation
										JOINT LeftForeArm
										{
											OFFSET 8.512804 0.000000 -0.000000
											CHANNELS 3 Xrotation Yrotation Zrotation
											JOINT LeftHand
											{
												OFFSET 18.484802 0.000000 -0.000000
												CHANNELS 3 Xrotation Yrotation Zrotation
												End Site
												{
													OFFSET 0 0 0
												}
											}
										}
									}
								}
							}
						}
						JOINT RightShoulder_virtual
						{
							OFFSET 0.000000 0.000000 0.000000
							CHANNELS 3 Xrotation Yrotation Zrotation
							JOINT RightShoulder
							{
								OFFSET -2.196100 4.412496 0.070690
								CHANNELS 3 Xrotation Yrotation Zrotation
								JOINT RightShoulder_split
								{
									OFFSET -2.196100 4.412496 0.070690
									CHANNELS 3 Xrotation Yrotation Zrotation
									JOINT RightArm
									{
										OFFSET -8.771282 -2.981682 -0.094208
										CHANNELS 3 Xrotation Yrotation Zrotation
										JOINT RightForeArm
										{
											OFFSET -8.494598 0.000000 0.000000
											CHANNELS 3 Xrotation Yrotation Zrotation
											JOINT RightHand
											{
												OFFSET -18.483803 0.000000 0.000001
												CHANNELS 3 Xrotation Yrotation Zrotation
												End Site
												{
													OFFSET 0 0 0
												}
											}
										}
									}
								}
							}
						}
					}
				}
			}
		}
	}
}
MOTION
Frames: 7
Frame Time: 0.03333333
0.081918 29.124977 -3.595520 0.000000 0.000000 0.000000 11.354372 -54.777222 11.876887 -38.658833 11.650366 27.421195 40.100030 -11.854259 -0.536500 -7.030829 4.598082 -19.663085 0.644954 -4.680884 1.792833 0.000000 0.000000 0.000000 9.495125 -52.025664 10.353944 -26.580900 -13.951042 -32.162073 34.997036 18.902958 -1.725187 -11.827688 -21.845923 32.903197 11.273617 13.073804 -19.211364 0.000000 0.000000 0.000000 3.012996 -48.138156 6.330545 16.184594 3.475006 -2.130700 2.458608 -4.260337 -1.268568 0.209516 0.155025 -0.021429 0.000000 0.000000 0.000000 3.336606 -0.986352 -1.900317 5.410212 4.182464 2.685373 7.457574 37.688690 -12.440850 0.000000 0.000000 0.000000 3.170888 -3.405029 -2.693543 6.221427 -3.115930 -14.852468 -1.437387 -4.219144 1.423175 -41.479431 17.966773 -23.332286 9.205792 -32.996132 2.475928 0.000000 0.000000 0.000000 5.018198 -2.118362 -1.540940 -3.140824 0.438849 8.347418 4.323105 4.773254 1.597951 2.379209 -8.641558 51.934347 -12.607761 28.437556 10.675616 0.000000 0.000000 0.000000 
-0.093866 29.398506 -2.820704 0.000000 0.000000 0.000000 11.306646 -54.643453 11.346731 -38.615861 12.408583 27.665941 40.814776 -12.309836 -0.163162 -7.082786 4.546988 -20.610299 0.060538 -4.808449 2.307283 0.000000 0.000000 0.000000 10.500036 -52.349787 10.528283 -26.083883 -14.050244 -31.533624 34.400214 18.440481 -1.630009 -10.666190 -21.817742 33.146737 10.158995 13.033977 -18.677070 0.000000 0.000000 0.000000 4.020783 -48.279715 6.409879 15.668428 3.336181 -1.960542 2.319370 -4.337848 -1.241950 0.118143 0.151995 -0.052228 0.000000 0.000000 0.000000 3.330092 -1.020342 -1.870007 5.154950 4.210663 2.744838 6.977577 38.287971 -12.833697 0.000000 0.000000 0.000000 3.167423 -3.458434 -2.655315 6.169047 -3.469943 -14.401404 -1.767997 -4.169258 1.805407 -42.201287 18.268550 -22.616863 9.006811 -33.606901 2.590113 0.000000 0.000000 0.000000 5.027328 -2.136290 -1.529693 -3.245207 0.975650 8.661078 3.643410 3.858054 1.037054 0.252090 -9.069106 51.065872 -12.414243 27.199362 10.456480 0.000000 0.000000 0.000000 
-0.280680 29.734285 -1.876410 0.000000 0.000000 0.000000 11.600241 -54.495443 10.931645 -37.623578 13.194927 27.295260 41.544479 -12.849270 0.046944 -8.719571 4.668560 -20.643991 -0.939822 -4.969398 3.145894 0.000000 0.000000 0.000000 11.692678 -52.409117 10.650587 -25.818363 -13.566925 -30.414877 34.536237 17.683266 -1.588967 -10.197768 -22.332116 32.155632 8.353597 13.044648 -17.494587 0.000000 0.000000 0.000000 5.600587 -48.340131 6.681669 14.849919 3.149482 -1.652479 2.144678 -4.549794 -1.154630 0.044898 0.190524 -0.037141 0.000000 0.000000 0.000000 3.363245 -1.238760 -1.723730 4.705081 4.529574 2.546667 6.168501 40.290753 -13.812928 0.000000 0.000000 0.000000 3.100503 -3.652964 -2.504477 6.054946 -4.017651 -13.915894 -1.832784 -4.012301 1.938841 -43.381636 18.275868 -21.551554 9.252445 -33.344652 2.959078 0.000000 0.000000 0.000000 4.915723 -2.331197 -1.412992 -3.383080 1.717841 9.239461 2.997953 2.858027 0.858715 -3.067083 -9.221315 49.494088 -12.258067 24.790484 10.283837 0.000000 0.000000 0.000000 
-0.442006 29.963985 -0.893307 0.000000 0.000000 0.000000 12.160898 -54.302712 10.691189 -36.159629 13.794572 26.435907 42.766311 -13.294343 0.124962 -11.975913 5.045858 -19.432237 -1.223472 -5.077937 3.749136 0.000000 0.000000 0.000000 12.936935 -52.300685 10.796086 -26.223801 -12.586848 -28.981227 35.296041 16.928159 -1.630392 -10.779668 -23.146475 30.280503 6.561706 13.024099 -16.085732 0.000000 0.000000 0.000000 7.381627 -48.238983 7.076628 13.947384 2.920847 -1.255752 1.956431 -4.872131 -1.020030 0.032581 0.231864 0.003725 0.000000 0.000000 0.000000 3.416436 -1.610621 -1.497195 4.161513 5.069362 2.089525 5.335018 43.349838 -15.149390 0.000000 0.000000 0.000000 2.960624 -3.967515 -2.270046 5.888835 -4.731015 -13.460830 -1.830870 -3.847312 1.870892 -44.872724 17.998634 -20.480385 9.994469 -32.341687 3.651356 0.000000 0.000000 0.000000 4.728034 -2.686737 -1.237556 -3.552707 2.463869 10.016942 2.575458 2.099315 1.008377 -6.661266 -8.848149 47.724468 -12.236985 22.264567 10.270528 0.000000 0.000000 0.000000 
-0.569980 29.993519 0.017273 0.000000 0.000000 0.000000 13.037702 -53.843337 10.733643 -35.072929 13.964842 25.385206 44.944042 -13.757369 0.193901 -16.168441 5.448074 -17.476407 -0.391787 -5.065508 3.874264 0.000000 0.000000 0.000000 14.117412 -51.861428 10.964492 -27.578152 -11.371870 -27.424478 36.962747 16.508595 -1.891039 -12.423139 -23.826210 28.440998 4.892067 13.030347 -14.926786 0.000000 0.000000 0.000000 9.264566 -47.983288 7.602111 13.123211 2.669100 -0.821813 1.774887 -5.257180 -0.862101 0.048866 0.250948 0.008489 0.000000 0.000000 0.000000 3.428933 -2.073934 -1.267854 3.638061 5.744497 1.348879 4.799167 46.898135 -16.508265 0.000000 0.000000 0.000000 2.790050 -4.361774 -2.010018 5.688513 -5.505900 -13.024514 -1.789102 -3.937067 1.654124 -46.614549 17.377236 -19.617304 11.261034 -30.902689 4.759619 0.000000 0.000000 0.000000 4.501175 -3.161153 -1.059386 -3.751165 2.969561 10.868504 2.391887 1.659215 1.116865 -9.676052 -8.113602 46.280279 -12.407387 20.505512 10.436405 0.000000 0.000000 0.000000 
-0.684822 29.710417 0.781670 0.000000 0.000000 0.000000 14.242202 -53.015088 11.091806 -35.129927 13.328386 24.543411 48.334459 -14.564190 0.526050 -20.295803 5.567831 -15.701982 0.572146 -4.976842 3.924710 0.000000 0.000000 0.000000 15.079220 -51.141963 11.189770 -29.807021 -10.245217 -25.837566 39.918764 16.660484 -2.469242 -14.886227 -24.159356 27.394847 3.494553 13.077795 -14.310249 0.000000 0.000000 0.000000 11.055831 -47.328788 8.198068 12.463055 2.429632 -0.432015 1.604559 -5.652868 -0.729476 0.110800 0.237304 0.005222 0.000000 0.000000 0.000000 3.378734 -2.568126 -1.100655 3.204271 6.494632 0.333870 4.607608 50.375842 -17.515837 0.000000 0.000000 0.000000 2.622379 -4.781683 -1.787366 5.484086 -6.246358 -12.620092 -1.740949 -4.152448 1.307321 -48.554384 16.413428 -18.987238 12.975298 -29.291376 6.274312 0.000000 0.000000 0.000000 4.301883 -3.679896 -0.938900 -3.964755 3.089774 11.610765 2.510991 1.561799 1.314108 -11.557486 -7.238926 45.453741 -12.770177 19.871228 10.721009 0.000000 0.000000 0.000000 
-0.836481 29.134502 1.381731 0.000000 0.000000 0.000000 15.523919 -51.698293 11.678132 -36.496156 11.761521 24.019458 52.615652 -15.856098 1.236123 -23.666751 5.442825 -14.776040 0.955077 -4.887315 3.950464 0.000000 0.000000 0.000000 15.978659 -50.056493 11.608078 -32.740495 -9.487099 -24.444470 44.323218 17.330104 -3.461853 -18.233352 -24.225711 27.169516 2.587180 13.170094 -14.282078 0.000000 0.000000 0.000000 12.781700 -46.154102 8.876519 12.025315 2.220983 -0.138883 1.445382 -6.042273 -0.674718 0.165386 0.206771 0.009455 0.000000 0.000000 0.000000 3.254936 -3.035950 -1.037982 2.829509 7.239913 -0.854636 4.523098 53.445325 -17.919700 0.000000 0.000000 0.000000 2.470183 -5.179128 -1.674466 5.301949 -6.915171 -12.170088 -1.818885 -4.290031 0.947835 -50.854361 15.216401 -18.370962 14.908940 -27.470553 8.037057 0.000000 0.000000 0.000000 4.183804 -4.159515 -0.920253 -4.161541 2.836707 12.190616 2.728860 1.738623 1.606171 -12.542124 -6.569979 45.235906 -13.331297 20.229022 11.021246 0.000000 0.000000 0.000000 
